<?xml version="1.0" encoding="UTF-8"?>
<svg xmlns="http://www.w3.org/2000/svg" viewBox="448 46 170 140" fill="#0f172a">
  <path d="M506.04,86.7c10.53-7.2,21.13-10.6,34.04-8.55,6.61,1.05,12.93,4.93,18.94,7.55l-2.54-6.01c24.6-21.2,51.09-.12,58.54,26.01l-13.32-7.17c-30.54-14.08-65.7,8.99-65.67,42.18h-6.01c.19-22.07-17.38-41.55-38.77-45.73-15.49-3.03-27.65,2.11-40.22,10.73,6.21-26.03,34.81-48.78,57.84-25.35l-2.84,6.35Z"/>
  <path d="M478.83,101c48.78-4.23,60.69,64.35,16.43,78.42-57.16,18.18-75.75-73.28-16.43-78.42ZM478.82,110.99c-43.19,4.59-29.87,72.11,13.19,58.19,34.02-11,23.22-62.05-13.19-58.19Z"/>
  <path d="M579.83,101c46.99-3.81,61.26,62.16,16.89,77.89-56.74,20.12-77.11-73.01-16.89-77.89ZM579.81,110.99c-40.24,4.29-32.03,64.79,7.64,59.63,37.95-4.94,32.72-63.93-7.64-59.63Z"/>
  <path d="M521.12,64.64c7.29-1.33,14.93-1.49,22.26-.04,4.06-5.45,6.14-10.33,12.61-13.44,16.2-7.78,32.27.9,37.03,17.53-14.06-5.97-29.93-4.95-40.64,6.85-12.1-6.26-26.88-7.39-38.72.06-10.32-10.79-27.3-14.01-40.63-6.9,5.42-24.5,39.39-28.15,48.08-4.06Z"/>
  <path d="M476.76,119.93c22.45-4.62,37.56,23.45,18.6,37.6s-43.75-8.37-31.16-28.16c2.22-3.5,8.52-8.6,12.56-9.43Z"/>
  <path d="M577.78,119.94c19.01-3.25,34.55,14.46,23.67,31.67-12.27,19.41-42.34,9.04-39.14-14.15,1.07-7.79,7.51-16.16,15.48-17.52Z"/>
</svg>
