<?xml version="1.0" encoding="UTF-8"?>
<svg xmlns="http://www.w3.org/2000/svg" viewBox="0 0 717.09 341.06" role="img" aria-label="WebhookSpy wordmark">
  <defs>
    <style>
      :root {
        color-scheme: light dark;
      }
      .logo-bg {
        fill: #f8fafc;
        transition: fill 0.3s ease;
      }
      .wordmark {
        fill: #0f172a;
        transition: fill 0.3s ease;
      }
      .accent {
        fill: #14b8a6;
      }
      @media (prefers-color-scheme: dark) {
        .logo-bg {
          fill: #020617;
        }
        .wordmark {
          fill: #f8fafc;
        }
      }
    </style>
  </defs>
  <rect class="logo-bg" width="717.09" height="341.06" rx="32" />
  <g class="wordmark">
    <path d="M24.54,85.7l17.51,67c2.66.24,1.62.04,1.97-1.51,1.74-7.69,14.12-63.3,17-65.02,4.25-.32,23.49-1.62,25.55.49l17.97,66.04,16.42-65.59c.9-1.27,2.16-1.28,3.53-1.47,3.55-.47,14.55-.48,18.09,0,1.99.27,3.47.6,4.26,2.68l-27.23,90.44c-2.16,1.54-27.56,1.52-29.1-.05l-16.97-58.04-15.77,55.24c-.51,1.18-1.59,2.74-2.75,3.25-1.9.84-22.68,1.03-25.46.5-1.76-.33-2.54-1.12-3.4-2.6L0,88.23c-.02-.82.97-2.53,1.53-2.53h23Z"/>
    <path d="M333.04,206.7l1.01,11.99c1.61-.49,1.89-2.64,3.44-4.05,11.87-10.79,35.04-10.7,47.87-1.77,18.56,12.91,19.9,46.74,12.44,66.08-9.74,25.26-41.55,32.67-62.76,16.74v42.5c0,3.41-15.49,2.8-18.54,2.54-2.16-.18-6.46-.61-6.46-3.54v-129.5c.98.32,2.17-1,2.5-1h20.5ZM352.8,226.96c-24.47,2.97-23.1,51.87-1.83,56.31,13.15,2.74,21.19-3.75,23.8-16.32,3.45-16.66.69-42.74-21.97-39.99Z"/>
    <path d="M372.04,177.2c-.98,3.52-16.12,2.9-19.56,2.56-2.38-.23-4.29-.06-5.24-2.76-.61-26.6.11-53.23-.16-79.84-.15-15.37-2.38-31.5-1.08-47,.4-4.73.5-5.93,5.52-6.46,3.82-.4,20.52-1.33,20.52,3.5v47.5c18.14-18.28,54.71-13.52,60.75,13.75,2.62,11.83,2.72,53.1,1.27,65.76-.16,1.44-.46,3.49-1.49,4.51-1.65,1.63-20.59,1.49-22.86.05-1.54-.97-1.56-3.8-1.71-5.54-1.45-17.15,1.86-37.13.04-54.05-1.34-12.54-12.86-15.66-23.82-12.81-5.34,1.39-12.18,9.37-12.18,14.82v56Z"/>
    <path d="M656.04,124.7l35.02-38.48c2.4-1.09,22.76-.97,24.56.4.77.59,1.46,1.59,1.45,2.59-.03,3.65-35.06,36.91-34.79,40.01,4.14,6.63,35.21,43.59,34.82,47.97-.05.57-.12,1.11-.48,1.58-1.4,1.88-22.61.91-26.56.42l-24.52-32.49-9.49,9.5v22c-.63.99-1.38,1.29-2.5,1.5-2.52.46-18.74.3-20.48-.51-.47-.22-2.02-1.81-2.02-1.98V46.2c0-1.79,3.96-2.41,5.44-2.56,3.13-.31,19.56-.82,19.56,2.56v78.5Z"/>
    <path d="M410.04,322.2c.95-2.88,14.68-1.13,18.97-3.03,2.92-1.29,9-12.9,8.93-15.99l-37.4-89.46-.35-5.88c.9-1.43,20.39-1.58,23.41-1.19,1.39.18,2.6.22,3.51,1.49l23.44,67.56,20.97-68.02c1.31-1.34,19.23-1.48,22-.94,1.99.38,3.26,1.48,3.56,3.52-13.49,33.74-23.36,69.17-37.28,102.7-5.66,13.64-10.97,25.25-27.51,27.49-3.99.54-15.05.93-18.72.23-1.1-.21-3.53-1.73-3.53-2.47v-16Z"/>
    <path d="M232.04,177.2c-1.53,1.78-3.23,2.26-5.48,2.52-10.22,1.19-46.18,1.02-55.06-1.98-21.16-7.15-24.52-29.86-23.51-49.59,1.88-36.62,20.76-46.52,55.53-43.44,32.08,2.85,37.21,29.65,32.37,56.84l-62.86,1.14c-.02,4.04,1.14,10.46,3.98,13.52,7.69,8.26,39.63,3.03,51.57,4.43,1.46.17,2.57.12,3.45,1.55v15ZM213.04,123.7c.11-14.32-6.37-20.22-20.49-20.08-13.63.13-19.28,6.67-19.51,20.08h40Z"/>
    <path d="M221.04,285.2c1.12-3.64,10.32-1.3,13.55-1.45,2.82-.13,5.32-1.01,7.91-1.09,8.7-.25,20.94,1.25,28.98-.02,8.14-1.28,9.11-15.5-3.93-16.94-13.2-1.46-35.1,3.24-43.7-10.3s-6.76-38.2,9.19-45.19c9.46-4.15,46.74-4.98,57.55-3.54,6.23.83,5.1,11.41,4.51,16.6-.48,4.16-2.93,4.17-6.51,4.49-12.07,1.07-31.04-2.21-41.83.17-7.46,1.64-6.35,13.95,1,15.58,13.36,2.95,29.48-1.66,42.32,5.68,17.66,10.1,14.43,44.48-5.34,51.72-11.17,4.09-38.84,1.56-52.23,1.77-4.1.07-7.88,2.85-11.46-1.46v-16Z"/>
    <path d="M319.04,119.7c-.55-.77-14,9.82-16.99,7.51l26.11-40.38c3.36-.62,4.55,1.42,4.93,4.33,1.39,10.67.85,36.83-.06,48.03-4.23,51.83-73.19,55.62-81.97,5.01V46.41c-19.01-7.15-22.42-35.67-3.01-44.21,25.28-11.13,45.15,22.72,25.02,39.02-2.61,2.11-7.49,3.13-8.03,5.97v93.99c2.83,28.37,38.95,35.18,50.88,9.88.63-1.34,3.13-8.04,3.13-8.87v-22.5ZM264.68,17.06c-8.85-8.86-22.03,5.28-12.71,13.21,9.17,7.8,20.53-5.38,12.71-13.21Z"/>
    <path d="M506.04,86.7c10.53-7.2,21.13-10.6,34.04-8.55,6.61,1.05,12.93,4.93,18.94,7.55l-2.54-6.01c24.6-21.2,51.09-.12,58.54,26.01l-13.32-7.17c-30.54-14.08-65.7,8.99-65.67,42.18h-6.01c.19-22.07-17.38-41.55-38.77-45.73-15.49-3.03-27.65,2.11-40.22,10.73,6.21-26.03,34.81-48.78,57.84-25.35l-2.84,6.35Z"/>
    <path d="M478.83,101c48.78-4.23,60.69,64.35,16.43,78.42-57.16,18.18-75.75-73.28-16.43-78.42ZM478.82,110.99c-43.19,4.59-29.87,72.11,13.19,58.19,34.02-11,23.22-62.05-13.19-58.19Z"/>
    <path d="M579.83,101c46.99-3.81,61.26,62.16,16.89,77.89-56.74,20.12-77.11-73.01-16.89-77.89ZM579.81,110.99c-40.24,4.29-32.03,64.79,7.64,59.63,37.95-4.94,32.72-63.93-7.64-59.63Z"/>
    <path d="M521.12,64.64c7.29-1.33,14.93-1.49,22.26-.04,4.06-5.45,6.14-10.33,12.61-13.44,16.2-7.78,32.27.9,37.03,17.53-14.06-5.97-29.93-4.95-40.64,6.85-12.1-6.26-26.88-7.39-38.72.06-10.32-10.79-27.3-14.01-40.63-6.9,5.42-24.5,39.39-28.15,48.08-4.06Z"/>
    <path d="M476.76,119.93c22.45-4.62,37.56,23.45,18.6,37.6s-43.75-8.37-31.16-28.16c2.22-3.5,8.52-8.6,12.56-9.43Z"/>
    <path d="M577.78,119.94c19.01-3.25,34.55,14.46,23.67,31.67-12.27,19.41-42.34,9.04-39.14-14.15,1.07-7.79,7.51-16.16,15.48-17.52Z"/>
  </g>
  <g class="accent">
    <path d="M352.8,226.96c22.66-2.75,25.42,23.33,21.97,39.99-2.6,12.57-10.65,19.06-23.8,16.32-21.27-4.44-22.64-53.34,1.83-56.31Z"/>
    <path d="M213.04,123.7h-40c.22-13.42,5.88-19.96,19.51-20.08,14.12-.13,20.61,5.77,20.49,20.08Z"/>
    <path d="M264.68,17.06c7.82,7.83-3.54,21.01-12.71,13.21-9.32-7.93,3.86-22.06,12.71-13.21Z"/>
    <path d="M478.82,110.99c36.41-3.87,47.21,47.19,13.19,58.19-43.06,13.92-56.38-53.6-13.19-58.19ZM476.76,119.93c-4.05.83-10.34,5.94-12.56,9.43-12.59,19.79,12.15,42.35,31.16,28.16s3.85-42.22-18.6-37.6Z"/>
    <path d="M579.81,110.99c40.36-4.31,45.59,54.69,7.64,59.63-39.67,5.16-47.88-55.33-7.64-59.63ZM577.78,119.94c-7.97,1.36-14.4,9.72-15.48,17.52-3.19,23.19,26.87,33.56,39.14,14.15,10.88-17.2-4.65-34.92-23.67-31.67Z"/>
  </g>
</svg>
